<svg width="708" height="318" viewBox="0 0 708 318" fill="none" xmlns="http://www.w3.org/2000/svg">
<rect x="390" width="318" height="318" rx="50" fill="#F44336"/>
<path d="M556.78 110.74V233.68C556.78 234.88 556.36 235.9 555.52 236.74C554.68 237.58 553.66 238 552.46 238H525.28C524.08 238 523.06 237.58 522.22 236.74C521.38 235.9 520.96 234.88 520.96 233.68V175.72C520.96 174.52 520.42 173.86 519.34 173.74C518.26 173.62 517.36 174.04 516.64 175L486.4 223.78C485.8 224.74 484.84 225.22 483.52 225.22C482.2 225.22 481.18 224.74 480.46 223.78L450.22 175C449.62 174.04 448.78 173.62 447.7 173.74C446.62 173.86 446.08 174.52 446.08 175.72V233.68C446.08 234.88 445.66 235.9 444.82 236.74C443.98 237.58 442.96 238 441.76 238H414.58C413.38 238 412.36 237.58 411.52 236.74C410.68 235.9 410.26 234.88 410.26 233.68V110.74C410.26 109.54 410.68 108.52 411.52 107.68C412.36 106.84 413.38 106.42 414.58 106.42H439.78C440.98 106.42 442.24 106.78 443.56 107.5C444.88 108.22 445.84 109.06 446.44 110.02L481 160.78C481.72 161.74 482.56 162.22 483.52 162.22C484.48 162.22 485.26 161.74 485.86 160.78L520.42 110.02C521.14 109.06 522.16 108.22 523.48 107.5C524.8 106.78 526.06 106.42 527.26 106.42H552.46C553.66 106.42 554.68 106.84 555.52 107.68C556.36 108.52 556.78 109.54 556.78 110.74ZM620.61 143.68V151.24C620.61 152.44 621.03 153.46 621.87 154.3C622.71 155.14 623.73 155.56 624.93 155.56H673.71C674.91 155.56 675.93 155.98 676.77 156.82C677.61 157.66 678.03 158.68 678.03 159.88V184.72C678.03 185.92 677.61 186.94 676.77 187.78C675.93 188.62 674.91 189.04 673.71 189.04H624.93C623.73 189.04 622.71 189.46 621.87 190.3C621.03 191.14 620.61 192.16 620.61 193.36V200.2C620.61 201.4 621.03 202.42 621.87 203.26C622.71 204.1 623.73 204.52 624.93 204.52H680.91C682.11 204.52 683.13 204.94 683.97 205.78C684.81 206.62 685.23 207.64 685.23 208.84V233.68C685.23 234.88 684.81 235.9 683.97 236.74C683.13 237.58 682.11 238 680.91 238H589.29C588.09 238 587.07 237.58 586.23 236.74C585.39 235.9 584.97 234.88 584.97 233.68V110.56C584.97 109.36 585.39 108.34 586.23 107.5C587.07 106.66 588.09 106.24 589.29 106.24H680.91C682.11 106.24 683.13 106.66 683.97 107.5C684.81 108.34 685.23 109.36 685.23 110.56V135.04C685.23 136.24 684.81 137.26 683.97 138.1C683.13 138.94 682.11 139.36 680.91 139.36H624.93C623.73 139.36 622.71 139.78 621.87 140.62C621.03 141.46 620.61 142.48 620.61 143.68Z" fill="white"/>
<path d="M24.66 192.82C31.14 197.02 37.56 200.32 43.92 202.72C50.28 205.12 56.22 206.32 61.74 206.32C67.02 206.32 71.04 205.6 73.8 204.16C76.56 202.6 77.94 200.32 77.94 197.32C77.94 195.76 77.34 194.56 76.14 193.72C74.94 192.76 73.32 191.98 71.28 191.38C69.36 190.78 67.08 190.3 64.44 189.94C61.8 189.58 59.1 189.1 56.34 188.5C53.7 188.02 50.58 187.48 46.98 186.88C43.5 186.16 39.9 185.2 36.18 184C32.46 182.68 28.74 181.06 25.02 179.14C21.42 177.22 18.18 174.76 15.3 171.76C12.42 168.76 10.08 165.22 8.28 161.14C6.6 156.94 5.76 152.02 5.76 146.38C5.76 138.1 7.38 131.26 10.62 125.86C13.86 120.46 17.94 116.2 22.86 113.08C27.9 109.84 33.48 107.62 39.6 106.42C45.72 105.1 51.66 104.44 57.42 104.44C67.5 104.44 76.5 105.94 84.42 108.94C92.46 111.82 100.14 116.08 107.46 121.72C108.42 122.56 108.96 123.58 109.08 124.78C109.2 125.98 108.9 127.06 108.18 128.02L94.14 148C93.42 148.96 92.46 149.56 91.26 149.8C90.06 150.04 88.98 149.8 88.02 149.08C81.9 145.24 76.2 142.54 70.92 140.98C65.64 139.3 60.78 138.46 56.34 138.46C55.02 138.46 53.46 138.52 51.66 138.64C49.98 138.64 48.36 138.88 46.8 139.36C45.24 139.72 43.92 140.38 42.84 141.34C41.88 142.3 41.4 143.62 41.4 145.3C41.4 146.98 42.66 148.48 45.18 149.8C47.7 151.12 50.58 152.26 53.82 153.22C57.06 154.18 60.18 154.96 63.18 155.56C66.18 156.04 68.1 156.34 68.94 156.46C73.26 157.3 78 158.56 83.16 160.24C88.32 161.8 93.12 164.2 97.56 167.44C102.12 170.56 105.9 174.7 108.9 179.86C112.02 184.9 113.58 191.26 113.58 198.94C113.58 206.14 112.32 212.38 109.8 217.66C107.28 222.82 103.74 227.08 99.18 230.44C94.74 233.8 89.34 236.32 82.98 238C76.74 239.56 69.78 240.34 62.1 240.34C55.86 240.34 50.04 239.8 44.64 238.72C39.24 237.76 34.2 236.38 29.52 234.58C24.84 232.78 20.46 230.68 16.38 228.28C12.42 225.76 8.76 223.12 5.4 220.36C4.44 219.64 3.9 218.68 3.78 217.48C3.66 216.16 3.96 215.02 4.68 214.06L18.54 194.08C19.26 193.12 20.22 192.52 21.42 192.28C22.62 192.04 23.7 192.22 24.66 192.82ZM132.064 110.74C132.064 109.54 132.484 108.52 133.324 107.68C134.164 106.84 135.184 106.42 136.384 106.42H163.564C164.764 106.42 165.784 106.84 166.624 107.68C167.464 108.52 167.884 109.54 167.884 110.74V183.64C167.884 188.32 168.604 192.22 170.044 195.34C171.604 198.34 173.464 200.74 175.624 202.54C177.904 204.22 180.304 205.42 182.824 206.14C185.344 206.86 187.624 207.22 189.664 207.22C191.704 207.22 193.984 206.86 196.504 206.14C199.024 205.42 201.364 204.22 203.524 202.54C205.684 200.74 207.484 198.34 208.924 195.34C210.484 192.22 211.264 188.32 211.264 183.64V110.74C211.264 109.54 211.684 108.52 212.524 107.68C213.364 106.84 214.384 106.42 215.584 106.42H242.764C243.964 106.42 244.984 106.84 245.824 107.68C246.664 108.52 247.084 109.54 247.084 110.74V183.64C247.084 192.16 245.704 199.9 242.944 206.86C240.304 213.82 236.464 219.76 231.424 224.68C226.384 229.6 220.324 233.44 213.244 236.2C206.164 238.84 198.304 240.16 189.664 240.16C181.024 240.16 173.164 238.84 166.084 236.2C159.004 233.44 152.944 229.6 147.904 224.68C142.864 219.76 138.964 213.82 136.204 206.86C133.444 199.9 132.064 192.16 132.064 183.64V110.74ZM364.099 170.14C366.019 171.22 367.939 172.54 369.859 174.1C371.779 175.66 373.519 177.58 375.079 179.86C376.759 182.14 378.079 184.78 379.039 187.78C380.119 190.78 380.659 194.2 380.659 198.04C380.659 205.84 379.399 212.32 376.879 217.48C374.479 222.52 371.179 226.6 366.979 229.72C362.779 232.72 357.919 234.88 352.399 236.2C346.999 237.4 341.299 238 335.299 238H278.239C277.039 238 276.019 237.58 275.179 236.74C274.339 235.9 273.919 234.88 273.919 233.68V110.56C273.919 109.36 274.339 108.34 275.179 107.5C276.019 106.66 277.039 106.24 278.239 106.24H332.599C338.359 106.24 343.879 106.9 349.159 108.22C354.439 109.42 359.059 111.46 363.019 114.34C367.099 117.22 370.339 121 372.739 125.68C375.259 130.24 376.519 135.88 376.519 142.6C376.519 148 375.139 152.68 372.379 156.64C369.739 160.6 366.859 163.72 363.739 166C361.579 167.56 361.699 168.94 364.099 170.14ZM313.879 156.28H330.619C333.019 156.28 334.939 155.38 336.379 153.58C337.819 151.66 338.539 149.56 338.539 147.28C338.539 145.12 337.639 143.26 335.839 141.7C334.159 140.14 332.539 139.36 330.979 139.36H313.879C312.679 139.36 311.659 139.78 310.819 140.62C309.979 141.46 309.559 142.48 309.559 143.68V151.96C309.559 153.16 309.979 154.18 310.819 155.02C311.659 155.86 312.679 156.28 313.879 156.28ZM332.779 185.98H313.879C312.679 185.98 311.659 186.4 310.819 187.24C309.979 188.08 309.559 189.1 309.559 190.3V200.56C309.559 201.76 309.979 202.78 310.819 203.62C311.659 204.46 312.679 204.88 313.879 204.88H334.039C336.199 204.88 338.239 203.98 340.159 202.18C342.079 200.38 343.039 198.28 343.039 195.88C343.039 193.72 342.079 191.56 340.159 189.4C338.359 187.12 335.899 185.98 332.779 185.98Z" fill="#F44336"/>
</svg>
