<svg width="318" height="318" viewBox="0 0 318 318" fill="none" xmlns="http://www.w3.org/2000/svg">
<rect width="318" height="318" rx="50" fill="#F44336"/>
<path d="M166.78 110.74V233.68C166.78 234.88 166.36 235.9 165.52 236.74C164.68 237.58 163.66 238 162.46 238H135.28C134.08 238 133.06 237.58 132.22 236.74C131.38 235.9 130.96 234.88 130.96 233.68V175.72C130.96 174.52 130.42 173.86 129.34 173.74C128.26 173.62 127.36 174.04 126.64 175L96.4 223.78C95.8 224.74 94.84 225.22 93.52 225.22C92.2 225.22 91.18 224.74 90.46 223.78L60.22 175C59.62 174.04 58.78 173.62 57.7 173.74C56.62 173.86 56.08 174.52 56.08 175.72V233.68C56.08 234.88 55.66 235.9 54.82 236.74C53.98 237.58 52.96 238 51.76 238H24.58C23.38 238 22.36 237.58 21.52 236.74C20.68 235.9 20.26 234.88 20.26 233.68V110.74C20.26 109.54 20.68 108.52 21.52 107.68C22.36 106.84 23.38 106.42 24.58 106.42H49.78C50.98 106.42 52.24 106.78 53.56 107.5C54.88 108.22 55.84 109.06 56.44 110.02L91 160.78C91.72 161.74 92.56 162.22 93.52 162.22C94.48 162.22 95.26 161.74 95.86 160.78L130.42 110.02C131.14 109.06 132.16 108.22 133.48 107.5C134.8 106.78 136.06 106.42 137.26 106.42H162.46C163.66 106.42 164.68 106.84 165.52 107.68C166.36 108.52 166.78 109.54 166.78 110.74ZM230.61 143.68V151.24C230.61 152.44 231.03 153.46 231.87 154.3C232.71 155.14 233.73 155.56 234.93 155.56H283.71C284.91 155.56 285.93 155.98 286.77 156.82C287.61 157.66 288.03 158.68 288.03 159.88V184.72C288.03 185.92 287.61 186.94 286.77 187.78C285.93 188.62 284.91 189.04 283.71 189.04H234.93C233.73 189.04 232.71 189.46 231.87 190.3C231.03 191.14 230.61 192.16 230.61 193.36V200.2C230.61 201.4 231.03 202.42 231.87 203.26C232.71 204.1 233.73 204.52 234.93 204.52H290.91C292.11 204.52 293.13 204.94 293.97 205.78C294.81 206.62 295.23 207.64 295.23 208.84V233.68C295.23 234.88 294.81 235.9 293.97 236.74C293.13 237.58 292.11 238 290.91 238H199.29C198.09 238 197.07 237.58 196.23 236.74C195.39 235.9 194.97 234.88 194.97 233.68V110.56C194.97 109.36 195.39 108.34 196.23 107.5C197.07 106.66 198.09 106.24 199.29 106.24H290.91C292.11 106.24 293.13 106.66 293.97 107.5C294.81 108.34 295.23 109.36 295.23 110.56V135.04C295.23 136.24 294.81 137.26 293.97 138.1C293.13 138.94 292.11 139.36 290.91 139.36H234.93C233.73 139.36 232.71 139.78 231.87 140.62C231.03 141.46 230.61 142.48 230.61 143.68Z" fill="white"/>
</svg>
